<?xml version="1.0" encoding="UTF-8"?>
<svg width="11px" height="11px" viewBox="0 0 11 11" version="1.1" xmlns="http://www.w3.org/2000/svg" xmlns:xlink="http://www.w3.org/1999/xlink">
    <!-- Generator: Sketch 52.6 (67491) - http://www.bohemiancoding.com/sketch -->
    <title>edit</title>
    <desc>Created with Sketch.</desc>
    <g id="Symbols" stroke="none" stroke-width="1" fill="none" fill-rule="evenodd">
        <g id="Icon/Pencil" transform="translate(0.000000, -1.000000)" fill="#0085FD" fill-rule="nonzero">
            <path d="M5.66627793,4.26985663 L1.48285652,8.45227395 C1.26002309,8.64935809 1.12216959,8.92507843 1.1,9.17730623 L1.1,10.9016191 L2.78519058,10.9026543 C3.0790138,10.8818534 3.35251781,10.745108 3.57213627,10.4938925 L7.73118506,6.33484369 L5.66627793,4.26985663 Z M6.44418874,3.49213253 L8.50900254,5.55702621 L9.82563676,4.240392 C9.87326929,4.19275961 9.90002893,4.12815616 9.90002893,4.06079371 C9.90002893,3.99343126 9.87326929,3.92882782 9.82563626,3.88119494 L8.11861836,2.17417105 C8.07151862,2.12670024 8.00741453,2.1 7.9405425,2.1 C7.87367048,2.1 7.80956638,2.12670024 7.76246664,2.17417105 L6.44418874,3.49213253 Z M7.9405425,1 C8.30064851,1 8.64584924,1.14378088 8.89795874,1.39788249 L10.6034532,3.103377 C10.8573764,3.35729947 11.0000289,3.70169265 11.0000289,4.06079371 C11.0000289,4.41989479 10.8573764,4.76428796 10.6034537,5.01820994 L4.37662895,11.243065 C3.99246346,11.6862209 3.44789502,11.9584919 2.82403,12.0012812 L0,12.0012812 L0,11.4512812 L0.0017862075,9.13301583 C0.048641021,8.55306013 0.318266735,8.01378265 0.729572981,7.65138078 L6.98246323,1.3985455 C7.23601565,1.14345622 7.58084327,1 7.9405425,1 Z" id="edit"></path>
        </g>
    </g>
</svg>