<?xml version="1.0" encoding="UTF-8"?>
<svg width="10px" height="8px" viewBox="0 0 10 8" version="1.1" xmlns="http://www.w3.org/2000/svg" xmlns:xlink="http://www.w3.org/1999/xlink">
    <!-- Generator: Sketch 52.6 (67491) - http://www.bohemiancoding.com/sketch -->
    <title>heart-empty</title>
    <desc>Created with Sketch.</desc>
    <g id="Symbols" stroke="none" stroke-width="1" fill="none" fill-rule="evenodd">
        <g id="Icon/Heart/Outline" fill="#090A0C" fill-rule="nonzero">
            <g id="heart-empty">
                <path d="M5.11555274,0.261231669 C5.58233047,0.0648372907 5.99045986,-6.624e-07 6.6112722,6.82666667e-06 C8.23960505,0.005803312 9.45454545,1.1958032 9.45454545,2.70928929 C9.45454545,3.85488712 8.72386468,4.94302656 7.37942063,5.98242912 C6.68315015,6.52072256 5.79624638,7.05217408 5.15680562,7.33680432 L4.72727273,7.52799963 L4.29773983,7.33680432 C3.65829908,7.05217408 2.77139532,6.52072256 2.07512479,5.98242912 C0.730680777,4.94302656 5.68434189e-14,3.85488712 5.68434189e-14,2.70928929 C5.65161715e-14,1.18058991 1.20456773,0 2.84710744,0 C3.4461505,0 3.87451262,0.0708530507 4.3497226,0.272889365 C4.48001216,0.328282192 4.60434816,0.391821472 4.72226653,0.46339624 C4.84648772,0.386647968 4.97774967,0.319211611 5.11555274,0.261231669 Z M6.61059986,5.17232629 C7.71796947,4.31620824 8.27272727,3.49005559 8.27272727,2.70928929 C8.27272727,1.76555093 7.56266869,1.07006854 6.60893811,1.06666934 C6.14964575,1.06666686 5.90658716,1.10528065 5.6148863,1.22801231 C5.43958713,1.30176855 5.28503165,1.40071901 5.15030485,1.52638235 L4.72926102,1.91910136 L4.3045277,1.52963223 C4.17274666,1.40879253 4.02008235,1.31182486 3.84610488,1.23785805 C3.54471253,1.10972059 3.28441791,1.06666667 2.84710744,1.06666667 C1.88000988,1.06666667 1.18181818,1.75096034 1.18181818,2.70928929 C1.18181818,3.49005559 1.73657599,4.31620824 2.84394557,5.17232629 C3.43182568,5.62682203 4.18241296,6.0822256 4.72727273,6.33754411 C5.2721325,6.0822256 6.02271977,5.62682203 6.61059986,5.17232629 Z"></path>
            </g>
        </g>
    </g>
</svg>