<?xml version="1.0" encoding="UTF-8"?>
<svg width="10px" height="8px" viewBox="0 0 10 8" version="1.1" xmlns="http://www.w3.org/2000/svg" xmlns:xlink="http://www.w3.org/1999/xlink">
    <!-- Generator: Sketch 52.6 (67491) - http://www.bohemiancoding.com/sketch -->
    <title>heart-active</title>
    <desc>Created with Sketch.</desc>
    <g id="Symbols" stroke="none" stroke-width="1" fill="none" fill-rule="evenodd">
        <g id="Icon/Heart/Filled" fill="#DA1B12" fill-rule="nonzero">
            <path d="M5.01811787,0.277610714 C5.47600498,0.068902544 5.87636082,-7.03932022e-07 6.48534867,7.25469395e-06 C8.082667,0.00616717565 9.2744667,1.27077923 9.2744667,2.87915986 C9.2744667,4.09658588 8.55770304,5.25295091 7.23886634,6.35752329 C6.55585758,6.92956736 5.68584648,7.49434052 5.05858502,7.79681688 L4.63723335,8 L4.21588168,7.79681688 C3.58862022,7.49434052 2.71860913,6.92956736 2.03560032,6.35752329 C0.716763653,5.25295091 5.68434189e-14,4.09658588 5.68434189e-14,2.87915986 C5.65224045e-14,1.25461208 1.18162458,0 2.79287918,0 C3.38051239,0 3.80071558,0.075295488 4.26687434,0.28999934 C4.3946823,0.348865259 4.5166501,0.416388407 4.63232251,0.492450864 C4.75417768,0.410890528 4.88293951,0.339225958 5.01811787,0.277610714 Z" id="heart-active"></path>
        </g>
    </g>
</svg>