<?xml version="1.0" encoding="UTF-8"?>
<svg width="18px" height="20px" viewBox="0 0 18 20" version="1.1" xmlns="http://www.w3.org/2000/svg" xmlns:xlink="http://www.w3.org/1999/xlink">
    <!-- Generator: Sketch 52.6 (67491) - http://www.bohemiancoding.com/sketch -->
    <title>module</title>
    <desc>Created with Sketch.</desc>
    <g id="Symbols" stroke="none" stroke-width="1" fill="none" fill-rule="evenodd">
        <g id="Navigation/Mobile/Discover" transform="translate(-193.000000, -9.000000)" fill="#7F8E94" fill-rule="nonzero">
            <path d="M211,29 L196,29 C194.343146,29 193,27.6568542 193,26 L193,12 C193,10.3431457 194.343146,9 196,9 L211,9 L211,25 C210.447715,25 210,25.4477153 210,26 C210,26.5522847 210.447715,27 211,27 L211,29 Z M208,26 C208,25.6493646 208.060154,25.3127789 208.170706,25 L196,25 C195.447715,25 195,25.4477153 195,26 C195,26.5522847 195.447715,27 196,27 L208.170706,27 C208.060154,26.6872211 208,26.3506354 208,26 Z M209,11 L196,11 C195.447715,11 195,11.4477152 195,12 L195,23.1707057 C195.312779,23.0601542 195.649365,23 196,23 L209,23 L209,11 Z" id="module"></path>
        </g>
    </g>
</svg>