<?xml version="1.0" encoding="UTF-8"?>
<svg width="22px" height="22px" viewBox="0 0 22 22" version="1.1" xmlns="http://www.w3.org/2000/svg" xmlns:xlink="http://www.w3.org/1999/xlink">
    <!-- Generator: Sketch 52.6 (67491) - http://www.bohemiancoding.com/sketch -->
    <title>professor</title>
    <desc>Created with Sketch.</desc>
    <g id="Symbols" stroke="none" stroke-width="1" fill="none" fill-rule="evenodd">
        <g id="Navigation/Mobile/Discover" transform="translate(-109.000000, -7.000000)" fill="#7F8E94" fill-rule="nonzero">
            <path d="M120,29 C113.924868,29 109,24.0751322 109,18 C109,11.9248678 113.924868,7 120,7 C126.075132,7 131,11.9248678 131,18 C131,24.0751322 126.075132,29 120,29 Z M120,27 C124.970563,27 129,22.9705627 129,18 C129,13.0294373 124.970563,9 120,9 C115.029437,9 111,13.0294373 111,18 C111,22.9705627 115.029437,27 120,27 Z M123.274654,20.2978292 L124.910562,21.4483958 C123.794547,23.0351773 121.977554,24 120,24 C118.022446,24 116.205453,23.0351773 115.089438,21.4483958 L116.725346,20.2978292 C117.470703,21.3575983 118.6805,22 120,22 C121.3195,22 122.529297,21.3575983 123.274654,20.2978292 Z M122,17 L122,15 L124,15 L124,17 L122,17 Z M116,17 L116,15 L118,15 L118,17 L116,17 Z" id="professor"></path>
        </g>
    </g>
</svg>