<?xml version="1.0" encoding="UTF-8"?>
<svg width="22px" height="22px" viewBox="0 0 22 22" version="1.1" xmlns="http://www.w3.org/2000/svg" xmlns:xlink="http://www.w3.org/1999/xlink">
    <!-- Generator: Sketch 52.6 (67491) - http://www.bohemiancoding.com/sketch -->
    <title>profile</title>
    <desc>Created with Sketch.</desc>
    <g id="Symbols" stroke="none" stroke-width="1" fill="none" fill-rule="evenodd">
        <g id="Navigation/Mobile/Discover" transform="translate(-274.000000, -8.000000)" fill="#7F8E94" fill-rule="nonzero">
            <path d="M279.035318,25.739764 C280.6233,27.146176 282.711939,28 285,28 C287.288061,28 289.3767,27.146176 290.964682,25.739764 C290.671999,24.687349 288.569382,24 285,24 C281.430618,24 279.328001,24.687349 279.035318,25.739764 Z M277.600504,24.1246475 C278.725951,22.638064 281.370602,22 285,22 C288.629398,22 291.274049,22.638064 292.399496,24.1246475 C293.408618,22.6703183 294,20.9042215 294,19 C294,14.0294373 289.970563,10 285,10 C280.029437,10 276,14.0294373 276,19 C276,20.9042215 276.591382,22.6703183 277.600504,24.1246475 Z M285,30 C278.924868,30 274,25.0751322 274,19 C274,12.9248678 278.924868,8 285,8 C291.075132,8 296,12.9248678 296,19 C296,25.0751322 291.075132,30 285,30 Z M281,17 C281,14.7557594 282.5791,13 285,13 C287.414195,13 289,14.9215782 289,17.2 C289,20.479614 287.218086,22 285,22 C282.760864,22 281,20.4273743 281,17 Z M283,17 C283,19.2692568 283.818211,20 285,20 C286.177706,20 287,19.2983927 287,17.2 C287,15.9504174 286.215657,15 285,15 C283.733739,15 283,15.8158248 283,17 Z" id="profile"></path>
        </g>
    </g>
</svg>