<?xml version="1.0" encoding="UTF-8"?>
<svg width="8px" height="8px" viewBox="0 0 8 8" version="1.1" xmlns="http://www.w3.org/2000/svg" xmlns:xlink="http://www.w3.org/1999/xlink">
    <!-- Generator: Sketch 52.6 (67491) - http://www.bohemiancoding.com/sketch -->
    <title>review</title>
    <desc>Created with Sketch.</desc>
    <g id="Symbols" stroke="none" stroke-width="1" fill="none" fill-rule="evenodd">
        <g id="List/Professor" transform="translate(-240.000000, -11.000000)" fill="#0740F9" fill-rule="nonzero">
            <path d="M245.120965,12.7781072 L242.678441,15.2198356 C242.51638,15.3631695 242.416123,15.5636934 242.4,15.7471318 L242.4,16.6011775 L243.225593,16.6019304 C243.439283,16.5868025 243.638195,16.4873513 243.797917,16.3046491 L246.222677,13.8798892 L245.120965,12.7781072 Z M245.686742,12.2125138 L246.788363,13.3142038 L247.145918,12.9566487 C247.180559,12.922007 247.200021,12.8750227 247.200021,12.8260318 C247.200021,12.7770409 247.180559,12.7300566 247.145917,12.6954145 L246.30445,11.8539426 C246.270195,11.8194184 246.223574,11.8 246.17494,11.8 C246.126306,11.8 246.079685,11.8194184 246.04543,11.8539426 L245.686742,12.2125138 Z M248,15.4 L248,18.2 C248,18.6418278 247.641828,19 247.2,19 L240.8,19 C240.358172,19 240,18.6418278 240,18.2 L240,11.8 C240,11.3581722 240.358172,11 240.8,11 L243.6,11 L243.6,11.8 L240.8,11.8 L240.8,18.2 L247.2,18.2 L247.2,15.4 L248,15.4 Z M246.17494,11 C246.436835,11 246.68789,11.1045679 246.871243,11.2893691 L247.711602,12.1297287 C247.896274,12.3143996 248.000021,12.5648674 248.000021,12.8260318 C248.000021,13.0871962 247.896274,13.337664 247.711603,13.5223345 L244.383003,16.8495018 C244.10361,17.171797 243.70756,17.3698123 243.25384,17.4009318 L241.6,17.4009318 L241.6,17.0009318 L241.601299,15.7149206 C241.635375,15.2931346 241.831467,14.9009328 242.130599,14.6373678 L245.478155,11.2898513 C245.662557,11.1043318 245.913341,11 246.17494,11 Z" id="review"></path>
        </g>
    </g>
</svg>