<?xml version="1.0" encoding="UTF-8"?>
<svg width="24px" height="24px" viewBox="0 0 24 24" version="1.1" xmlns="http://www.w3.org/2000/svg" xmlns:xlink="http://www.w3.org/1999/xlink">
    <!-- Generator: Sketch 52.6 (67491) - http://www.bohemiancoding.com/sketch -->
    <title>star-circle</title>
    <desc>Created with Sketch.</desc>
    <g id="Symbols" stroke="none" stroke-width="1" fill="none" fill-rule="evenodd">
        <g id="Icon/Circle_Star" fill="#0740F9" fill-rule="nonzero">
            <path d="M12,24 C5.372583,24 0,18.6274169 0,12 C0,5.372583 5.372583,0 12,0 C18.6274169,0 24,5.372583 24,12 C24,18.6274169 18.6274169,24 12,24 Z M12,21.8181818 C17.422432,21.8181818 21.8181818,17.422432 21.8181818,12 C21.8181818,6.57756791 17.422432,2.18181818 12,2.18181818 C6.57756791,2.18181818 2.18181818,6.57756791 2.18181818,12 C2.18181818,17.422432 6.57756791,21.8181818 12,21.8181818 Z M7.18003531,18.4784583 L8.10056665,13.1113488 L4.2011333,9.31034066 L9.59001766,8.52728993 L12,3.64413233 L14.4099824,8.52728993 L19.7988667,9.31034066 L15.8994334,13.1113488 L16.8199647,18.4784583 L12,15.9444529 L7.18003531,18.4784583 Z M12,13.4794877 L13.9222243,14.4900608 L13.5551121,12.3496327 L15.1102243,10.8337729 L12.9611122,10.5214887 L12,8.5740628 L11.0388878,10.5214887 L8.88977579,10.8337729 L10.4448879,12.3496327 L10.0777757,14.4900608 L12,13.4794877 Z" id="star-circle"></path>
        </g>
    </g>
</svg>